<svg xmlns="http://www.w3.org/2000/svg" xmlns:xlink="http://www.w3.org/1999/xlink" width="500" zoomAndPan="magnify" viewBox="0 0 375 374.999991" height="500" preserveAspectRatio="xMidYMid meet" version="1.0"><defs><clipPath id="9a23389e3d"><path d="M 130.96875 112.5 L 244.21875 112.5 L 244.21875 262.5 L 130.96875 262.5 Z M 130.96875 112.5 " clip-rule="nonzero"/></clipPath><clipPath id="e84fa230fc"><path d="M 49 22 L 310 22 L 310 357 L 49 357 Z M 49 22 " clip-rule="nonzero"/></clipPath><clipPath id="072c0f6117"><path d="M 129.960938 -16.738281 L 363.070312 68.632812 L 244.679688 391.886719 L 11.570312 306.511719 Z M 129.960938 -16.738281 " clip-rule="nonzero"/></clipPath><clipPath id="5878c4a647"><path d="M 129.960938 -16.738281 L 363.070312 68.632812 L 244.679688 391.886719 L 11.570312 306.511719 Z M 129.960938 -16.738281 " clip-rule="nonzero"/></clipPath><clipPath id="0c2fab1724"><path d="M 129.960938 -16.738281 L 363.070312 68.632812 L 244.679688 391.886719 L 11.570312 306.511719 Z M 129.960938 -16.738281 " clip-rule="nonzero"/></clipPath><clipPath id="35986943d6"><path d="M 126 251 L 296 251 L 296 357 L 126 357 Z M 126 251 " clip-rule="nonzero"/></clipPath><clipPath id="36879f8d4b"><path d="M 129.960938 -16.738281 L 363.070312 68.632812 L 244.679688 391.886719 L 11.570312 306.511719 Z M 129.960938 -16.738281 " clip-rule="nonzero"/></clipPath><clipPath id="c0679ff292"><path d="M 129.960938 -16.738281 L 363.070312 68.632812 L 244.679688 391.886719 L 11.570312 306.511719 Z M 129.960938 -16.738281 " clip-rule="nonzero"/></clipPath><clipPath id="86b764eee8"><path d="M 129.960938 -16.738281 L 363.070312 68.632812 L 244.679688 391.886719 L 11.570312 306.511719 Z M 129.960938 -16.738281 " clip-rule="nonzero"/></clipPath><clipPath id="b011d6d416"><path d="M 50 80 L 310 80 L 310 357 L 50 357 Z M 50 80 " clip-rule="nonzero"/></clipPath><clipPath id="472dd93560"><path d="M 129.960938 -16.738281 L 363.070312 68.632812 L 244.679688 391.886719 L 11.570312 306.511719 Z M 129.960938 -16.738281 " clip-rule="nonzero"/></clipPath><clipPath id="96c47f8892"><path d="M 129.960938 -16.738281 L 363.070312 68.632812 L 244.679688 391.886719 L 11.570312 306.511719 Z M 129.960938 -16.738281 " clip-rule="nonzero"/></clipPath><clipPath id="55a16e27ff"><path d="M 129.960938 -16.738281 L 363.070312 68.632812 L 244.679688 391.886719 L 11.570312 306.511719 Z M 129.960938 -16.738281 " clip-rule="nonzero"/></clipPath><clipPath id="30117a39d4"><path d="M 116 38 L 249 38 L 249 158 L 116 158 Z M 116 38 " clip-rule="nonzero"/></clipPath><clipPath id="bb3268bd2f"><path d="M 129.960938 -16.738281 L 363.070312 68.632812 L 244.679688 391.886719 L 11.570312 306.511719 Z M 129.960938 -16.738281 " clip-rule="nonzero"/></clipPath><clipPath id="6741194aca"><path d="M 129.960938 -16.738281 L 363.070312 68.632812 L 244.679688 391.886719 L 11.570312 306.511719 Z M 129.960938 -16.738281 " clip-rule="nonzero"/></clipPath><clipPath id="0cebf62997"><path d="M 129.960938 -16.738281 L 363.070312 68.632812 L 244.679688 391.886719 L 11.570312 306.511719 Z M 129.960938 -16.738281 " clip-rule="nonzero"/></clipPath></defs><rect x="-37.5" width="450" fill="#ffffff" y="-37.499999" height="449.999989" fill-opacity="1"/><rect x="-37.5" width="450" fill="#fdfaf6" y="-37.499999" height="449.999989" fill-opacity="1"/><g clip-path="url(#9a23389e3d)"><path fill="#000000" d="M 239.769531 168.019531 C 236.839844 158.84375 232.664062 149.769531 227.707031 141.785156 C 222.367188 133.1875 216.164062 126.019531 209.804688 121.058594 C 209.652344 120.941406 209.492188 120.832031 209.332031 120.71875 C 208.046875 119.777344 206.75 118.847656 205.398438 118 C 204.113281 117.191406 202.78125 116.457031 201.40625 115.800781 C 200.105469 115.179688 198.773438 114.628906 197.40625 114.164062 C 196.097656 113.71875 194.757812 113.363281 193.394531 113.105469 C 192.722656 112.976562 192.046875 112.871094 191.371094 112.78125 C 190.542969 112.671875 189.714844 112.5625 188.878906 112.53125 C 188.359375 112.507812 187.835938 112.507812 187.316406 112.515625 C 186.886719 112.515625 186.453125 112.539062 186.027344 112.5625 C 184.636719 112.640625 183.238281 112.757812 181.867188 113 C 180.441406 113.25 179.046875 113.644531 177.683594 114.125 C 176.277344 114.625 174.894531 115.199219 173.546875 115.839844 C 172.109375 116.519531 170.710938 117.28125 169.375 118.140625 C 167.960938 119.042969 166.582031 120.03125 165.261719 121.0625 C 158.910156 126.023438 152.777344 133.195312 147.449219 141.792969 C 142.5 149.777344 138.34375 158.855469 135.425781 168.035156 C 132.511719 177.1875 130.972656 186.015625 130.972656 193.53125 C 130.972656 205.195312 132.460938 215.675781 135.394531 224.636719 C 138.171875 233.109375 142.265625 240.378906 147.5625 246.140625 C 157.328125 256.773438 171.128906 262.488281 187.460938 262.488281 L 189.371094 262.488281 C 205.054688 262.089844 218.15625 256.363281 227.613281 246.074219 C 232.914062 240.308594 237.03125 233.0625 239.8125 224.589844 C 242.746094 215.628906 244.234375 205.171875 244.234375 193.507812 C 244.234375 185.992188 242.6875 177.175781 239.769531 168.019531 Z M 187.753906 258.585938 L 187.121094 258.582031 C 153.796875 258.425781 134.695312 234.726562 134.695312 193.507812 C 134.695312 178.882812 140.945312 159.347656 150.613281 143.742188 C 161.460938 126.238281 174.925781 116.195312 187.558594 116.195312 C 200.207031 116.195312 213.695312 126.238281 224.5625 143.742188 C 234.253906 159.351562 240.515625 178.886719 240.515625 193.507812 C 240.515625 234.867188 221.285156 258.585938 187.753906 258.585938 Z M 187.753906 258.585938 " fill-opacity="1" fill-rule="nonzero"/></g><g clip-path="url(#e84fa230fc)"><g clip-path="url(#072c0f6117)"><g clip-path="url(#5878c4a647)"><g clip-path="url(#0c2fab1724)"><path fill="#ee9f5f" d="M 295.074219 253.855469 C 262.386719 343.113281 192.390625 372.804688 128.085938 349.253906 C 63.800781 325.707031 29.554688 257.839844 62.246094 168.582031 C 94.9375 79.316406 191.972656 6.03125 246.476562 25.992188 C 302.488281 46.507812 327.769531 164.585938 295.074219 253.855469 " fill-opacity="1" fill-rule="nonzero"/></g></g></g></g><g clip-path="url(#35986943d6)"><g clip-path="url(#36879f8d4b)"><g clip-path="url(#c0679ff292)"><g clip-path="url(#86b764eee8)"><path fill="#e7e6e7" d="M 128.085938 349.253906 C 128.058594 349.242188 128.023438 349.230469 128 349.222656 C 128.027344 349.230469 128.058594 349.242188 128.085938 349.253906 C 192.390625 372.804688 262.386719 343.113281 295.074219 253.855469 C 262.386719 343.113281 192.390625 372.804688 128.085938 349.253906 M 127.976562 349.214844 C 127.957031 349.207031 127.929688 349.195312 127.90625 349.1875 C 127.929688 349.195312 127.957031 349.207031 127.976562 349.214844 M 127.890625 349.183594 C 127.863281 349.167969 127.84375 349.160156 127.8125 349.148438 C 127.839844 349.15625 127.867188 349.171875 127.890625 349.183594 M 127.789062 349.140625 C 127.769531 349.132812 127.75 349.125 127.726562 349.117188 C 127.75 349.125 127.765625 349.128906 127.789062 349.140625 M 127.699219 349.105469 C 127.675781 349.097656 127.648438 349.089844 127.625 349.078125 C 127.644531 349.085938 127.679688 349.097656 127.699219 349.105469 M 127.597656 349.070312 C 127.578125 349.0625 127.558594 349.054688 127.539062 349.046875 C 127.558594 349.054688 127.578125 349.0625 127.597656 349.070312 M 127.507812 349.035156 C 127.484375 349.027344 127.457031 349.019531 127.433594 349.007812 C 127.457031 349.019531 127.484375 349.027344 127.507812 349.035156 M 127.402344 348.996094 C 127.390625 348.992188 127.371094 348.988281 127.355469 348.980469 C 127.367188 348.984375 127.390625 348.992188 127.402344 348.996094 M 127.316406 348.964844 C 127.300781 348.960938 127.28125 348.953125 127.269531 348.949219 C 127.28125 348.953125 127.304688 348.960938 127.316406 348.964844 M 127.207031 348.925781 C 127.191406 348.921875 127.179688 348.914062 127.167969 348.910156 C 127.179688 348.914062 127.191406 348.921875 127.207031 348.925781 M 127.121094 348.890625 C 127.109375 348.886719 127.101562 348.882812 127.089844 348.878906 C 127.101562 348.882812 127.109375 348.886719 127.121094 348.890625 M 126.921875 348.816406 C 126.917969 348.816406 126.910156 348.8125 126.90625 348.8125 C 126.910156 348.8125 126.917969 348.816406 126.921875 348.816406 M 295.105469 253.777344 C 295.105469 253.773438 295.109375 253.761719 295.113281 253.757812 C 295.109375 253.765625 295.105469 253.773438 295.105469 253.777344 M 295.132812 253.699219 C 295.136719 253.691406 295.136719 253.6875 295.140625 253.675781 C 295.136719 253.683594 295.136719 253.691406 295.132812 253.699219 M 295.164062 253.613281 C 295.164062 253.609375 295.167969 253.605469 295.167969 253.601562 C 295.167969 253.601562 295.164062 253.609375 295.164062 253.613281 M 295.195312 253.523438 C 295.199219 253.515625 295.199219 253.511719 295.203125 253.503906 C 295.203125 253.507812 295.199219 253.515625 295.195312 253.523438 M 295.226562 253.445312 C 295.226562 253.4375 295.234375 253.425781 295.234375 253.421875 C 295.230469 253.429688 295.226562 253.4375 295.226562 253.445312 M 295.253906 253.367188 C 295.257812 253.363281 295.261719 253.347656 295.261719 253.34375 C 295.257812 253.355469 295.257812 253.359375 295.253906 253.367188 M 295.289062 253.277344 C 295.289062 253.273438 295.289062 253.273438 295.289062 253.269531 C 295.289062 253.273438 295.289062 253.273438 295.289062 253.277344 M 295.316406 253.195312 C 295.320312 253.183594 295.324219 253.179688 295.328125 253.164062 C 295.324219 253.179688 295.320312 253.183594 295.316406 253.195312 M 295.347656 253.113281 C 295.351562 253.105469 295.351562 253.101562 295.355469 253.089844 C 295.351562 253.097656 295.347656 253.109375 295.347656 253.113281 M 295.375 253.03125 C 295.378906 253.023438 295.378906 253.023438 295.382812 253.011719 C 295.382812 253.019531 295.378906 253.027344 295.375 253.03125 M 295.414062 252.933594 C 295.414062 252.929688 295.414062 252.933594 295.414062 252.929688 C 295.414062 252.933594 295.414062 252.933594 295.414062 252.933594 M 295.441406 252.863281 C 295.441406 252.855469 295.445312 252.84375 295.449219 252.835938 C 295.445312 252.84375 295.441406 252.851562 295.441406 252.863281 M 295.46875 252.78125 C 295.472656 252.777344 295.476562 252.761719 295.476562 252.757812 C 295.472656 252.765625 295.472656 252.769531 295.46875 252.78125 M 295.5 252.695312 C 295.503906 252.691406 295.503906 252.6875 295.503906 252.679688 C 295.503906 252.6875 295.503906 252.691406 295.5 252.695312 M 295.527344 252.601562 L 295.535156 252.589844 C 295.53125 252.59375 295.53125 252.597656 295.527344 252.601562 M 295.558594 252.527344 C 295.5625 252.511719 295.5625 252.511719 295.566406 252.503906 C 295.5625 252.507812 295.5625 252.515625 295.558594 252.527344 M 295.589844 252.441406 C 295.589844 252.4375 295.59375 252.429688 295.59375 252.425781 C 295.59375 252.429688 295.589844 252.4375 295.589844 252.441406 M 295.652344 252.265625 L 295.65625 252.261719 L 295.652344 252.265625 M 295.679688 252.1875 C 295.683594 252.183594 295.683594 252.179688 295.6875 252.175781 C 295.683594 252.179688 295.683594 252.183594 295.679688 252.1875 M 295.769531 251.933594 C 295.773438 251.925781 295.769531 251.929688 295.773438 251.921875 L 295.769531 251.933594 M 295.800781 251.847656 C 295.800781 251.84375 295.800781 251.847656 295.804688 251.839844 L 295.800781 251.847656 M 295.890625 251.59375 L 295.890625 251.589844 L 295.890625 251.59375 " fill-opacity="1" fill-rule="nonzero"/></g></g></g></g><g clip-path="url(#b011d6d416)"><g clip-path="url(#472dd93560)"><g clip-path="url(#96c47f8892)"><g clip-path="url(#55a16e27ff)"><path fill="#d78f56" d="M 128.085938 349.253906 C 128.058594 349.242188 128.027344 349.230469 128 349.222656 C 127.988281 349.21875 127.984375 349.214844 127.976562 349.214844 C 127.957031 349.207031 127.929688 349.195312 127.90625 349.1875 C 127.902344 349.183594 127.894531 349.183594 127.890625 349.183594 C 127.867188 349.171875 127.839844 349.15625 127.8125 349.148438 C 127.804688 349.144531 127.796875 349.140625 127.789062 349.140625 C 127.765625 349.128906 127.75 349.125 127.726562 349.117188 C 127.71875 349.113281 127.710938 349.109375 127.699219 349.105469 C 127.679688 349.097656 127.644531 349.085938 127.625 349.078125 C 127.617188 349.074219 127.605469 349.074219 127.597656 349.070312 C 127.578125 349.0625 127.558594 349.054688 127.539062 349.046875 C 127.527344 349.042969 127.515625 349.039062 127.507812 349.035156 C 127.484375 349.027344 127.457031 349.019531 127.433594 349.007812 C 127.421875 349.003906 127.414062 349.003906 127.402344 348.996094 C 127.390625 348.992188 127.367188 348.984375 127.355469 348.980469 C 127.34375 348.976562 127.328125 348.972656 127.316406 348.964844 C 127.304688 348.960938 127.28125 348.953125 127.269531 348.949219 C 127.25 348.941406 127.226562 348.933594 127.207031 348.925781 C 127.191406 348.921875 127.179688 348.914062 127.167969 348.910156 C 127.148438 348.90625 127.136719 348.894531 127.121094 348.890625 C 127.109375 348.886719 127.101562 348.882812 127.089844 348.878906 C 127.035156 348.859375 126.976562 348.835938 126.921875 348.816406 C 126.917969 348.816406 126.910156 348.8125 126.90625 348.8125 C 83.019531 332.269531 53.453125 294.878906 50.046875 244.113281 C 63.4375 270.667969 86.230469 290.363281 115.21875 300.980469 C 179.527344 324.535156 249.523438 294.851562 282.214844 205.597656 C 296.777344 165.839844 299.804688 120.386719 293.773438 80.367188 C 312.898438 127.347656 315.902344 194.964844 295.890625 251.589844 L 295.890625 251.59375 C 295.859375 251.675781 295.832031 251.757812 295.804688 251.839844 C 295.800781 251.847656 295.800781 251.84375 295.800781 251.847656 C 295.789062 251.878906 295.785156 251.894531 295.773438 251.921875 C 295.769531 251.929688 295.773438 251.925781 295.769531 251.933594 C 295.75 251.988281 295.730469 252.039062 295.714844 252.097656 C 295.707031 252.117188 295.695312 252.148438 295.6875 252.175781 C 295.683594 252.179688 295.683594 252.183594 295.679688 252.1875 C 295.671875 252.214844 295.664062 252.234375 295.65625 252.261719 L 295.652344 252.265625 C 295.632812 252.320312 295.613281 252.371094 295.59375 252.425781 C 295.59375 252.429688 295.589844 252.4375 295.589844 252.441406 C 295.582031 252.460938 295.574219 252.484375 295.566406 252.503906 C 295.5625 252.511719 295.5625 252.511719 295.558594 252.527344 C 295.550781 252.546875 295.542969 252.570312 295.535156 252.589844 L 295.527344 252.601562 C 295.519531 252.628906 295.511719 252.648438 295.503906 252.679688 C 295.503906 252.6875 295.503906 252.691406 295.5 252.695312 C 295.492188 252.714844 295.484375 252.738281 295.476562 252.757812 C 295.476562 252.761719 295.472656 252.777344 295.46875 252.78125 C 295.460938 252.800781 295.457031 252.820312 295.449219 252.835938 C 295.445312 252.84375 295.441406 252.855469 295.441406 252.863281 C 295.429688 252.882812 295.421875 252.910156 295.414062 252.929688 C 295.414062 252.933594 295.414062 252.929688 295.414062 252.933594 C 295.402344 252.960938 295.394531 252.984375 295.382812 253.011719 C 295.378906 253.023438 295.378906 253.023438 295.375 253.03125 C 295.367188 253.054688 295.363281 253.066406 295.355469 253.089844 C 295.351562 253.101562 295.351562 253.105469 295.347656 253.113281 C 295.339844 253.136719 295.335938 253.148438 295.328125 253.164062 C 295.324219 253.179688 295.320312 253.183594 295.316406 253.195312 C 295.308594 253.214844 295.300781 253.242188 295.289062 253.269531 C 295.289062 253.273438 295.289062 253.273438 295.289062 253.277344 C 295.28125 253.296875 295.269531 253.324219 295.261719 253.34375 C 295.261719 253.347656 295.257812 253.363281 295.253906 253.367188 C 295.246094 253.386719 295.242188 253.402344 295.234375 253.421875 C 295.234375 253.425781 295.226562 253.4375 295.226562 253.445312 C 295.21875 253.464844 295.210938 253.488281 295.203125 253.503906 C 295.199219 253.511719 295.199219 253.515625 295.195312 253.523438 C 295.183594 253.554688 295.179688 253.570312 295.167969 253.601562 C 295.167969 253.605469 295.164062 253.609375 295.164062 253.613281 C 295.15625 253.636719 295.148438 253.652344 295.140625 253.675781 C 295.136719 253.6875 295.136719 253.691406 295.132812 253.699219 C 295.125 253.722656 295.121094 253.734375 295.113281 253.757812 C 295.109375 253.761719 295.105469 253.773438 295.105469 253.777344 C 295.09375 253.804688 295.085938 253.828125 295.074219 253.855469 C 262.386719 343.113281 192.390625 372.804688 128.085938 349.253906 " fill-opacity="1" fill-rule="nonzero"/></g></g></g></g><g clip-path="url(#30117a39d4)"><g clip-path="url(#bb3268bd2f)"><g clip-path="url(#6741194aca)"><g clip-path="url(#0cebf62997)"><path fill="#f1b177" d="M 132.292969 153.085938 C 104.855469 143.046875 112.734375 99.292969 157.445312 65.921875 C 190.613281 41.34375 222.832031 34.390625 238.636719 40.183594 C 244.074219 42.171875 247.574219 45.667969 248.5 50.472656 C 252.582031 69.324219 227.804688 72.808594 211.941406 124.683594 C 203.039062 153.78125 160.464844 163.402344 132.824219 153.28125 C 132.722656 153.242188 132.625 153.207031 132.523438 153.167969 C 132.445312 153.140625 132.363281 153.113281 132.292969 153.085938 " fill-opacity="1" fill-rule="nonzero"/></g></g></g></g></svg>